<svg position="absolute" width="35" height="35" viewBox="0 0 35 35" fill="none" xmlns="http://www.w3.org/2000/svg">
<path d="M17.0637 7.4166e-05C21.3092 7.4166e-05 24.7739 3.34423 24.9684 7.54269L24.9737 7.82934L25.3608 7.83007C30.0739 7.83007 33.9172 11.5472 34.1162 16.2087L34.1243 16.5886V26.2414C34.1243 31.0792 30.2013 35 25.3608 35H8.76344C3.92301 35 0 31.0792 0 26.2414V16.5886C0 11.7509 3.92301 7.83007 8.76344 7.83007L9.11906 7.82934L9.12911 7.50731C9.34183 3.30978 12.822 -0.01811 17.0637 7.4166e-05ZM25.3608 10.455L24.9755 10.4543L24.977 13.2212C24.977 13.946 24.3894 14.5337 23.6646 14.5337C23.0001 14.5337 22.451 14.0399 22.3641 13.3993L22.3521 13.2212L22.3505 10.4543H11.7423L11.7438 13.2212C11.7438 13.946 11.1562 14.5337 10.4314 14.5337C9.7669 14.5337 9.21777 14.0399 9.13086 13.3993L9.11888 13.2212L9.11731 10.4543L8.76344 10.455C5.48543 10.455 2.80882 13.0209 2.63402 16.2521L2.62494 16.5886V26.2414C2.62494 29.6292 5.37239 32.3751 8.76344 32.3751H25.3608C28.7519 32.3751 31.4993 29.6292 31.4993 26.2414V16.5886C31.4993 13.2009 28.7519 10.455 25.3608 10.455ZM17.0581 2.62508C14.2397 2.61296 11.927 4.80442 11.7541 7.57536L11.744 7.82934H22.3488L22.3431 7.60444C22.1823 4.82729 19.8797 2.62509 17.0581 2.62508Z" fill="#1F1F26"/>
</svg>
